<svg width="31" height="32" viewBox="0 0 31 32" fill="none" xmlns="http://www.w3.org/2000/svg">
<g id="Google" clip-path="url(#clip0_6_2)">
<path id="Vector" d="M30.9836 16.2994C30.9836 14.9883 30.8782 14.0316 30.6499 13.0395H15.8087V18.9568H24.5202C24.3446 20.4274 23.3962 22.6419 21.2885 24.1301L21.259 24.3282L25.9515 27.9951L26.2766 28.0278C29.2623 25.2463 30.9836 21.1537 30.9836 16.2994Z" fill="#4285F4"/>
<path id="Vector_2" d="M15.8088 31.8901C20.0766 31.8901 23.6595 30.4727 26.2766 28.0279L21.2885 24.1301C19.9537 25.0691 18.1622 25.7246 15.8088 25.7246C11.6287 25.7246 8.08086 22.9432 6.81617 19.0986L6.6308 19.1145L1.75146 22.9236L1.68765 23.1025C4.28703 28.3112 9.62635 31.8901 15.8088 31.8901Z" fill="#34A853"/>
<path id="Vector_3" d="M6.81616 19.0986C6.48246 18.1065 6.28934 17.0434 6.28934 15.945C6.28934 14.8465 6.48246 13.7836 6.7986 12.7915L6.78977 12.5802L1.84929 8.70987L1.68764 8.78743C0.616317 10.9489 0.00158691 13.3761 0.00158691 15.945C0.00158691 18.514 0.616317 20.9411 1.68764 23.1025L6.81616 19.0986Z" fill="#FBBC05"/>
<path id="Vector_4" d="M15.8088 6.16537C18.7769 6.16537 20.7791 7.45869 21.9208 8.53948L26.3819 4.14571C23.6421 1.57679 20.0766 0 15.8088 0C9.62635 0 4.28703 3.57875 1.68765 8.78742L6.79861 12.7915C8.08086 8.94693 11.6287 6.16537 15.8088 6.16537Z" fill="#EB4335"/>
</g>
<defs>
<clipPath id="clip0_6_2">
<rect width="31" height="32" fill="white"/>
</clipPath>
</defs>
</svg>
